<svg xmlns="http://www.w3.org/2000/svg" width="187.5" viewBox="0 0 187.5 75" height="75" version="1.0"><defs><clipPath id="a"><path d="M 14.542969 21 L 23 21 L 23 42 L 14.542969 42 Z M 14.542969 21"/></clipPath><clipPath id="b"><path d="M 24 31 L 32.355469 31 L 32.355469 52 L 24 52 Z M 24 31"/></clipPath></defs><g clip-path="url(#a)"><path fill="#2C2E43" d="M 21.402344 35.269531 C 20.125 35.71875 18.996094 36.007812 17.371094 36.519531 C 18.007812 44.5625 25.457031 41.355469 21.402344 35.269531 Z M 21.035156 33.8125 C 21.054688 32.695312 20.996094 31.617188 21.476562 30.554688 C 22.015625 29.414062 22.105469 28.414062 21.804688 26.761719 C 21.257812 23.753906 20.105469 21.875 18.546875 21.464844 C 15.226562 20.972656 14.816406 24.277344 14.734375 26.691406 C 14.550781 28.042969 15.679688 33.828125 17.046875 34.808594 C 18.386719 34.460938 19.703125 34.121094 21.035156 33.8125 Z M 21.035156 33.8125"/></g><g clip-path="url(#b)"><path fill="#2C2E43" d="M 25.492188 44.960938 C 26.773438 45.410156 27.902344 45.695312 29.527344 46.207031 C 28.890625 54.25 21.441406 51.042969 25.492188 44.960938 Z M 25.863281 43.5 C 25.839844 42.382812 25.898438 41.304688 25.421875 40.242188 C 24.878906 39.105469 24.792969 38.105469 25.09375 36.453125 C 25.636719 33.441406 26.792969 31.566406 28.347656 31.15625 C 31.671875 30.664062 32.082031 33.964844 32.164062 36.382812 C 32.34375 37.734375 31.21875 43.515625 29.851562 44.496094 C 28.511719 44.148438 27.195312 43.808594 25.863281 43.5 Z M 25.863281 43.5"/></g><g fill="#2C2E43"><g><g><path d="M 8.101562 -11.355469 L 8.101562 -12.320312 C 8.101562 -12.457031 8.050781 -12.5625 7.945312 -12.667969 C 7.839844 -12.773438 7.71875 -12.828125 7.578125 -12.828125 L 1.382812 -12.828125 C 1.242188 -12.828125 1.121094 -12.773438 1.015625 -12.667969 C 0.910156 -12.5625 0.875 -12.457031 0.875 -12.320312 L 0.875 -11.355469 C 0.875 -11.214844 0.910156 -11.09375 1.015625 -10.988281 C 1.121094 -10.882812 1.242188 -10.847656 1.382812 -10.847656 L 2.992188 -10.847656 C 3.132812 -10.847656 3.238281 -10.796875 3.34375 -10.691406 C 3.445312 -10.585938 3.5 -10.480469 3.5 -10.339844 L 3.5 -0.507812 C 3.5 -0.367188 3.535156 -0.246094 3.640625 -0.140625 C 3.746094 -0.0351562 3.867188 0 4.007812 0 L 4.953125 0 C 5.09375 0 5.214844 -0.0351562 5.320312 -0.140625 C 5.425781 -0.246094 5.476562 -0.367188 5.476562 -0.507812 L 5.476562 -10.339844 C 5.476562 -10.480469 5.511719 -10.585938 5.617188 -10.691406 C 5.722656 -10.796875 5.84375 -10.847656 5.984375 -10.847656 L 7.578125 -10.847656 C 7.71875 -10.847656 7.839844 -10.882812 7.945312 -10.988281 C 8.050781 -11.09375 8.101562 -11.214844 8.101562 -11.355469 Z M 8.101562 -11.355469" transform="translate(41.223 43.225)"/></g></g></g><g fill="#2C2E43"><g><g><path d="M 6.351562 -12.320312 L 6.351562 -7.910156 C 6.351562 -7.769531 6.300781 -7.648438 6.195312 -7.542969 C 6.089844 -7.4375 5.984375 -7.402344 5.84375 -7.402344 L 3.359375 -7.402344 C 3.21875 -7.402344 3.097656 -7.4375 2.992188 -7.542969 C 2.886719 -7.648438 2.851562 -7.769531 2.851562 -7.910156 L 2.851562 -12.320312 C 2.851562 -12.457031 2.800781 -12.5625 2.695312 -12.667969 C 2.589844 -12.773438 2.484375 -12.828125 2.34375 -12.828125 L 1.382812 -12.828125 C 1.242188 -12.828125 1.121094 -12.773438 1.015625 -12.667969 C 0.910156 -12.5625 0.875 -12.457031 0.875 -12.320312 L 0.875 -0.507812 C 0.875 -0.367188 0.910156 -0.246094 1.015625 -0.140625 C 1.121094 -0.0351562 1.242188 0 1.382812 0 L 2.34375 0 C 2.484375 0 2.589844 -0.0351562 2.695312 -0.140625 C 2.800781 -0.246094 2.851562 -0.367188 2.851562 -0.507812 L 2.851562 -4.917969 C 2.851562 -5.058594 2.886719 -5.160156 2.992188 -5.265625 C 3.097656 -5.371094 3.21875 -5.425781 3.359375 -5.425781 L 5.84375 -5.425781 C 5.984375 -5.425781 6.089844 -5.371094 6.195312 -5.265625 C 6.300781 -5.160156 6.351562 -5.058594 6.351562 -4.917969 L 6.351562 -0.507812 C 6.351562 -0.367188 6.386719 -0.246094 6.492188 -0.140625 C 6.597656 -0.0351562 6.71875 0 6.875 0 L 7.820312 0 C 7.960938 0 8.066406 -0.0351562 8.171875 -0.140625 C 8.277344 -0.246094 8.328125 -0.367188 8.328125 -0.507812 L 8.328125 -12.320312 C 8.328125 -12.457031 8.277344 -12.5625 8.171875 -12.667969 C 8.066406 -12.773438 7.960938 -12.828125 7.820312 -12.828125 L 6.875 -12.828125 C 6.71875 -12.828125 6.597656 -12.773438 6.492188 -12.667969 C 6.386719 -12.5625 6.351562 -12.457031 6.351562 -12.320312 Z M 6.351562 -12.320312" transform="translate(53.699 43.225)"/></g></g></g><g fill="#2C2E43"><g><g><path d="M 7.175781 -11.355469 L 7.175781 -12.320312 C 7.175781 -12.457031 7.121094 -12.5625 7.015625 -12.667969 C 6.910156 -12.773438 6.808594 -12.828125 6.667969 -12.828125 L 1.382812 -12.828125 C 1.242188 -12.828125 1.121094 -12.773438 1.015625 -12.667969 C 0.910156 -12.5625 0.875 -12.457031 0.875 -12.320312 L 0.875 -0.507812 C 0.875 -0.367188 0.910156 -0.246094 1.015625 -0.140625 C 1.121094 -0.0351562 1.242188 0 1.382812 0 L 6.667969 0 C 6.808594 0 6.910156 -0.0351562 7.015625 -0.140625 C 7.121094 -0.246094 7.175781 -0.367188 7.175781 -0.507812 L 7.175781 -1.46875 C 7.175781 -1.609375 7.121094 -1.714844 7.015625 -1.820312 C 6.910156 -1.925781 6.808594 -1.976562 6.667969 -1.976562 L 3.359375 -1.976562 C 3.21875 -1.976562 3.097656 -2.011719 2.992188 -2.117188 C 2.886719 -2.222656 2.851562 -2.34375 2.851562 -2.484375 L 2.851562 -6.300781 C 2.851562 -6.4375 2.886719 -6.542969 2.992188 -6.648438 C 3.097656 -6.753906 3.21875 -6.808594 3.359375 -6.808594 L 5.546875 -6.808594 C 5.6875 -6.808594 5.808594 -6.859375 5.914062 -6.964844 C 6.019531 -7.070312 6.070312 -7.191406 6.070312 -7.332031 L 6.070312 -8.277344 C 6.070312 -8.417969 6.019531 -8.523438 5.914062 -8.625 C 5.808594 -8.730469 5.6875 -8.785156 5.546875 -8.785156 L 3.359375 -8.785156 C 3.21875 -8.785156 3.097656 -8.820312 2.992188 -8.925781 C 2.886719 -9.027344 2.851562 -9.152344 2.851562 -9.292969 L 2.851562 -10.339844 C 2.851562 -10.480469 2.886719 -10.585938 2.992188 -10.691406 C 3.097656 -10.796875 3.21875 -10.847656 3.359375 -10.847656 L 6.667969 -10.847656 C 6.808594 -10.847656 6.910156 -10.882812 7.015625 -10.988281 C 7.121094 -11.09375 7.175781 -11.214844 7.175781 -11.355469 Z M 7.175781 -11.355469" transform="translate(66.403 43.225)"/></g></g></g><g fill="#2C2E43"><g><g><path d="M 4.007812 -12.828125 C 2.976562 -12.828125 2.203125 -12.546875 1.699219 -12.003906 C 1.171875 -11.445312 0.925781 -10.675781 0.925781 -9.675781 C 0.925781 -9.308594 0.960938 -8.976562 1.03125 -8.660156 C 1.101562 -8.347656 1.242188 -8.03125 1.417969 -7.71875 C 1.59375 -7.402344 1.835938 -7.085938 2.136719 -6.773438 C 2.414062 -6.457031 2.78125 -6.105469 3.21875 -5.757812 C 3.550781 -5.476562 3.832031 -5.214844 4.058594 -4.96875 C 4.289062 -4.722656 4.480469 -4.515625 4.621094 -4.304688 C 4.757812 -4.09375 4.847656 -3.882812 4.917969 -3.675781 C 4.96875 -3.464844 5.003906 -3.238281 5.003906 -3.027344 C 5.003906 -2.574219 4.898438 -2.257812 4.707031 -2.082031 C 4.515625 -1.890625 4.253906 -1.800781 3.917969 -1.800781 C 3.570312 -1.800781 3.308594 -1.890625 3.132812 -2.082031 C 2.941406 -2.257812 2.851562 -2.574219 2.851562 -3.027344 L 2.851562 -3.535156 C 2.851562 -3.640625 2.800781 -3.726562 2.730469 -3.796875 C 2.640625 -3.867188 2.554688 -3.917969 2.449219 -3.917969 L 1.261719 -3.917969 C 1.15625 -3.917969 1.050781 -3.867188 0.980469 -3.796875 C 0.910156 -3.726562 0.875 -3.640625 0.875 -3.535156 L 0.875 -3.148438 C 0.875 -2.136719 1.136719 -1.347656 1.664062 -0.804688 C 2.1875 -0.261719 2.957031 0 3.988281 0 C 5.003906 0 5.773438 -0.261719 6.300781 -0.804688 C 6.824219 -1.347656 7.085938 -2.136719 7.085938 -3.148438 C 7.085938 -3.5 7.035156 -3.851562 6.964844 -4.164062 C 6.894531 -4.480469 6.773438 -4.777344 6.597656 -5.09375 C 6.421875 -5.40625 6.175781 -5.722656 5.878906 -6.035156 C 5.582031 -6.351562 5.214844 -6.703125 4.792969 -7.070312 C 4.445312 -7.347656 4.164062 -7.59375 3.9375 -7.839844 C 3.710938 -8.085938 3.535156 -8.3125 3.394531 -8.523438 C 3.253906 -8.730469 3.148438 -8.925781 3.097656 -9.132812 C 3.027344 -9.34375 3.007812 -9.554688 3.007812 -9.800781 C 3.007812 -10.238281 3.097656 -10.550781 3.273438 -10.742188 C 3.445312 -10.9375 3.710938 -11.042969 4.058594 -11.042969 C 4.390625 -11.042969 4.65625 -10.9375 4.828125 -10.742188 C 5.003906 -10.550781 5.09375 -10.238281 5.09375 -9.800781 L 5.09375 -9.675781 C 5.09375 -9.554688 5.128906 -9.449219 5.195312 -9.378906 C 5.265625 -9.308594 5.371094 -9.273438 5.496094 -9.273438 L 6.667969 -9.273438 C 6.773438 -9.273438 6.875 -9.308594 6.945312 -9.378906 C 7.015625 -9.449219 7.070312 -9.554688 7.070312 -9.675781 C 7.070312 -10.675781 6.808594 -11.445312 6.300781 -12.003906 C 5.773438 -12.546875 5.023438 -12.828125 4.007812 -12.828125 Z M 4.007812 -12.828125" transform="translate(86.7 43.225)"/></g></g></g><g fill="#2C2E43"><g><g><path d="M 6.351562 -12.320312 L 6.351562 -7.910156 C 6.351562 -7.769531 6.300781 -7.648438 6.195312 -7.542969 C 6.089844 -7.4375 5.984375 -7.402344 5.84375 -7.402344 L 3.359375 -7.402344 C 3.21875 -7.402344 3.097656 -7.4375 2.992188 -7.542969 C 2.886719 -7.648438 2.851562 -7.769531 2.851562 -7.910156 L 2.851562 -12.320312 C 2.851562 -12.457031 2.800781 -12.5625 2.695312 -12.667969 C 2.589844 -12.773438 2.484375 -12.828125 2.34375 -12.828125 L 1.382812 -12.828125 C 1.242188 -12.828125 1.121094 -12.773438 1.015625 -12.667969 C 0.910156 -12.5625 0.875 -12.457031 0.875 -12.320312 L 0.875 -0.507812 C 0.875 -0.367188 0.910156 -0.246094 1.015625 -0.140625 C 1.121094 -0.0351562 1.242188 0 1.382812 0 L 2.34375 0 C 2.484375 0 2.589844 -0.0351562 2.695312 -0.140625 C 2.800781 -0.246094 2.851562 -0.367188 2.851562 -0.507812 L 2.851562 -4.917969 C 2.851562 -5.058594 2.886719 -5.160156 2.992188 -5.265625 C 3.097656 -5.371094 3.21875 -5.425781 3.359375 -5.425781 L 5.84375 -5.425781 C 5.984375 -5.425781 6.089844 -5.371094 6.195312 -5.265625 C 6.300781 -5.160156 6.351562 -5.058594 6.351562 -4.917969 L 6.351562 -0.507812 C 6.351562 -0.367188 6.386719 -0.246094 6.492188 -0.140625 C 6.597656 -0.0351562 6.71875 0 6.875 0 L 7.820312 0 C 7.960938 0 8.066406 -0.0351562 8.171875 -0.140625 C 8.277344 -0.246094 8.328125 -0.367188 8.328125 -0.507812 L 8.328125 -12.320312 C 8.328125 -12.457031 8.277344 -12.5625 8.171875 -12.667969 C 8.066406 -12.773438 7.960938 -12.828125 7.820312 -12.828125 L 6.875 -12.828125 C 6.71875 -12.828125 6.597656 -12.773438 6.492188 -12.667969 C 6.386719 -12.5625 6.351562 -12.457031 6.351562 -12.320312 Z M 6.351562 -12.320312" transform="translate(98.162 43.225)"/></g></g></g><g fill="#2C2E43"><g><g><path d="M 5.738281 0 C 7.347656 0 8.609375 -0.664062 9.5 -2.03125 C 10.238281 -3.167969 10.605469 -4.621094 10.605469 -6.40625 C 10.605469 -7.28125 10.5 -8.085938 10.324219 -8.820312 C 10.132812 -9.554688 9.851562 -10.21875 9.5 -10.777344 C 8.609375 -12.144531 7.347656 -12.828125 5.738281 -12.828125 C 4.113281 -12.828125 2.851562 -12.144531 1.976562 -10.777344 C 1.609375 -10.21875 1.328125 -9.554688 1.15625 -8.820312 C 0.960938 -8.085938 0.875 -7.28125 0.875 -6.40625 C 0.875 -4.621094 1.242188 -3.167969 1.976562 -2.03125 C 2.851562 -0.664062 4.113281 0 5.738281 0 Z M 5.738281 -10.847656 C 6.175781 -10.847656 6.5625 -10.761719 6.875 -10.585938 C 7.191406 -10.410156 7.453125 -10.203125 7.664062 -9.921875 C 7.875 -9.640625 8.050781 -9.34375 8.1875 -9.011719 C 8.3125 -8.679688 8.398438 -8.347656 8.46875 -8.015625 C 8.539062 -7.683594 8.574219 -7.367188 8.589844 -7.085938 C 8.609375 -6.808594 8.625 -6.578125 8.625 -6.40625 C 8.625 -6.230469 8.609375 -5.984375 8.589844 -5.703125 C 8.574219 -5.425781 8.539062 -5.109375 8.46875 -4.792969 C 8.398438 -4.460938 8.3125 -4.128906 8.1875 -3.796875 C 8.050781 -3.464844 7.875 -3.167969 7.664062 -2.886719 C 7.453125 -2.605469 7.191406 -2.398438 6.875 -2.222656 C 6.5625 -2.046875 6.175781 -1.976562 5.738281 -1.976562 C 5.285156 -1.976562 4.917969 -2.046875 4.601562 -2.222656 C 4.289062 -2.398438 4.007812 -2.605469 3.796875 -2.886719 C 3.585938 -3.167969 3.414062 -3.464844 3.289062 -3.796875 C 3.148438 -4.128906 3.0625 -4.460938 2.992188 -4.792969 C 2.921875 -5.109375 2.886719 -5.425781 2.871094 -5.703125 C 2.851562 -5.984375 2.851562 -6.230469 2.851562 -6.40625 C 2.851562 -6.578125 2.851562 -6.808594 2.871094 -7.085938 C 2.886719 -7.367188 2.921875 -7.683594 2.992188 -8.015625 C 3.0625 -8.347656 3.148438 -8.679688 3.289062 -9.011719 C 3.414062 -9.34375 3.585938 -9.640625 3.796875 -9.921875 C 4.007812 -10.203125 4.289062 -10.410156 4.601562 -10.585938 C 4.917969 -10.761719 5.285156 -10.847656 5.738281 -10.847656 Z M 5.738281 -10.847656" transform="translate(110.866 43.225)"/></g></g></g><g fill="#2C2E43"><g><g><path d="M 7.175781 -11.355469 L 7.175781 -12.320312 C 7.175781 -12.457031 7.121094 -12.5625 7.015625 -12.667969 C 6.910156 -12.773438 6.808594 -12.828125 6.667969 -12.828125 L 1.382812 -12.828125 C 1.242188 -12.828125 1.121094 -12.773438 1.015625 -12.667969 C 0.910156 -12.5625 0.875 -12.457031 0.875 -12.320312 L 0.875 -0.507812 C 0.875 -0.367188 0.910156 -0.246094 1.015625 -0.140625 C 1.121094 -0.0351562 1.242188 0 1.382812 0 L 6.667969 0 C 6.808594 0 6.910156 -0.0351562 7.015625 -0.140625 C 7.121094 -0.246094 7.175781 -0.367188 7.175781 -0.507812 L 7.175781 -1.46875 C 7.175781 -1.609375 7.121094 -1.714844 7.015625 -1.820312 C 6.910156 -1.925781 6.808594 -1.976562 6.667969 -1.976562 L 3.359375 -1.976562 C 3.21875 -1.976562 3.097656 -2.011719 2.992188 -2.117188 C 2.886719 -2.222656 2.851562 -2.34375 2.851562 -2.484375 L 2.851562 -6.300781 C 2.851562 -6.4375 2.886719 -6.542969 2.992188 -6.648438 C 3.097656 -6.753906 3.21875 -6.808594 3.359375 -6.808594 L 5.546875 -6.808594 C 5.6875 -6.808594 5.808594 -6.859375 5.914062 -6.964844 C 6.019531 -7.070312 6.070312 -7.191406 6.070312 -7.332031 L 6.070312 -8.277344 C 6.070312 -8.417969 6.019531 -8.523438 5.914062 -8.625 C 5.808594 -8.730469 5.6875 -8.785156 5.546875 -8.785156 L 3.359375 -8.785156 C 3.21875 -8.785156 3.097656 -8.820312 2.992188 -8.925781 C 2.886719 -9.027344 2.851562 -9.152344 2.851562 -9.292969 L 2.851562 -10.339844 C 2.851562 -10.480469 2.886719 -10.585938 2.992188 -10.691406 C 3.097656 -10.796875 3.21875 -10.847656 3.359375 -10.847656 L 6.667969 -10.847656 C 6.808594 -10.847656 6.910156 -10.882812 7.015625 -10.988281 C 7.121094 -11.09375 7.175781 -11.214844 7.175781 -11.355469 Z M 7.175781 -11.355469" transform="translate(125.844 43.225)"/></g></g></g><g fill="#2C2E43"><g><g><path d="M 7.59375 -6.632812 C 7.488281 -6.703125 7.4375 -6.789062 7.417969 -6.910156 C 7.382812 -7.015625 7.402344 -7.140625 7.472656 -7.246094 C 7.75 -7.785156 7.910156 -8.382812 7.910156 -9.046875 C 7.910156 -9.695312 7.785156 -10.304688 7.523438 -10.867188 C 7.246094 -11.425781 6.84375 -11.882812 6.300781 -12.265625 C 5.757812 -12.632812 5.074219 -12.828125 4.269531 -12.828125 L 1.382812 -12.828125 C 1.242188 -12.828125 1.121094 -12.773438 1.015625 -12.667969 C 0.910156 -12.5625 0.875 -12.457031 0.875 -12.320312 L 0.875 -0.507812 C 0.875 -0.367188 0.910156 -0.246094 1.015625 -0.140625 C 1.121094 -0.0351562 1.242188 0 1.382812 0 L 5.265625 0 C 5.898438 0 6.457031 -0.105469 6.945312 -0.351562 C 7.417969 -0.59375 7.804688 -0.910156 8.121094 -1.292969 C 8.417969 -1.679688 8.625 -2.101562 8.765625 -2.589844 C 8.890625 -3.078125 8.925781 -3.570312 8.890625 -4.058594 C 8.835938 -4.550781 8.695312 -5.023438 8.488281 -5.476562 C 8.277344 -5.933594 7.980469 -6.316406 7.59375 -6.632812 Z M 3.359375 -10.847656 L 4.304688 -10.847656 C 4.671875 -10.847656 4.988281 -10.761719 5.230469 -10.585938 C 5.476562 -10.410156 5.652344 -10.203125 5.773438 -9.957031 C 5.898438 -9.695312 5.96875 -9.414062 5.96875 -9.117188 C 5.96875 -8.820312 5.898438 -8.539062 5.773438 -8.292969 C 5.632812 -8.03125 5.460938 -7.820312 5.214844 -7.648438 C 4.96875 -7.472656 4.65625 -7.402344 4.304688 -7.402344 L 3.359375 -7.402344 C 3.21875 -7.402344 3.097656 -7.4375 2.992188 -7.542969 C 2.886719 -7.648438 2.851562 -7.769531 2.851562 -7.910156 L 2.851562 -10.339844 C 2.851562 -10.480469 2.886719 -10.585938 2.992188 -10.691406 C 3.097656 -10.796875 3.21875 -10.847656 3.359375 -10.847656 Z M 5.300781 -1.976562 L 3.359375 -1.976562 C 3.21875 -1.976562 3.097656 -2.011719 2.992188 -2.117188 C 2.886719 -2.222656 2.851562 -2.34375 2.851562 -2.484375 L 2.851562 -4.917969 C 2.851562 -5.058594 2.886719 -5.160156 2.992188 -5.265625 C 3.097656 -5.371094 3.21875 -5.425781 3.359375 -5.425781 L 5.300781 -5.425781 C 5.667969 -5.425781 5.984375 -5.335938 6.230469 -5.160156 C 6.472656 -4.988281 6.648438 -4.777344 6.773438 -4.53125 C 6.894531 -4.269531 6.945312 -3.988281 6.945312 -3.691406 C 6.945312 -3.394531 6.875 -3.113281 6.753906 -2.871094 C 6.632812 -2.605469 6.457031 -2.398438 6.210938 -2.222656 C 5.96875 -2.046875 5.652344 -1.976562 5.300781 -1.976562 Z M 5.300781 -1.976562" transform="translate(137.393 43.225)"/></g></g></g><g fill="#2C2E43"><g><g><path d="M 5.738281 0 C 7.347656 0 8.609375 -0.664062 9.5 -2.03125 C 10.238281 -3.167969 10.605469 -4.621094 10.605469 -6.40625 C 10.605469 -7.28125 10.5 -8.085938 10.324219 -8.820312 C 10.132812 -9.554688 9.851562 -10.21875 9.5 -10.777344 C 8.609375 -12.144531 7.347656 -12.828125 5.738281 -12.828125 C 4.113281 -12.828125 2.851562 -12.144531 1.976562 -10.777344 C 1.609375 -10.21875 1.328125 -9.554688 1.15625 -8.820312 C 0.960938 -8.085938 0.875 -7.28125 0.875 -6.40625 C 0.875 -4.621094 1.242188 -3.167969 1.976562 -2.03125 C 2.851562 -0.664062 4.113281 0 5.738281 0 Z M 5.738281 -10.847656 C 6.175781 -10.847656 6.5625 -10.761719 6.875 -10.585938 C 7.191406 -10.410156 7.453125 -10.203125 7.664062 -9.921875 C 7.875 -9.640625 8.050781 -9.34375 8.1875 -9.011719 C 8.3125 -8.679688 8.398438 -8.347656 8.46875 -8.015625 C 8.539062 -7.683594 8.574219 -7.367188 8.589844 -7.085938 C 8.609375 -6.808594 8.625 -6.578125 8.625 -6.40625 C 8.625 -6.230469 8.609375 -5.984375 8.589844 -5.703125 C 8.574219 -5.425781 8.539062 -5.109375 8.46875 -4.792969 C 8.398438 -4.460938 8.3125 -4.128906 8.1875 -3.796875 C 8.050781 -3.464844 7.875 -3.167969 7.664062 -2.886719 C 7.453125 -2.605469 7.191406 -2.398438 6.875 -2.222656 C 6.5625 -2.046875 6.175781 -1.976562 5.738281 -1.976562 C 5.285156 -1.976562 4.917969 -2.046875 4.601562 -2.222656 C 4.289062 -2.398438 4.007812 -2.605469 3.796875 -2.886719 C 3.585938 -3.167969 3.414062 -3.464844 3.289062 -3.796875 C 3.148438 -4.128906 3.0625 -4.460938 2.992188 -4.792969 C 2.921875 -5.109375 2.886719 -5.425781 2.871094 -5.703125 C 2.851562 -5.984375 2.851562 -6.230469 2.851562 -6.40625 C 2.851562 -6.578125 2.851562 -6.808594 2.871094 -7.085938 C 2.886719 -7.367188 2.921875 -7.683594 2.992188 -8.015625 C 3.0625 -8.347656 3.148438 -8.679688 3.289062 -9.011719 C 3.414062 -9.34375 3.585938 -9.640625 3.796875 -9.921875 C 4.007812 -10.203125 4.289062 -10.410156 4.601562 -10.585938 C 4.917969 -10.761719 5.285156 -10.847656 5.738281 -10.847656 Z M 5.738281 -10.847656" transform="translate(150.674 43.225)"/></g></g></g><g fill="#2C2E43"><g><g><path d="M 3.746094 -6.738281 L 0.945312 -0.734375 C 0.839844 -0.558594 0.859375 -0.402344 0.980469 -0.226562 C 1.066406 -0.0703125 1.207031 0 1.398438 0 L 2.449219 0 C 2.660156 0 2.816406 -0.0859375 2.921875 -0.296875 L 4.722656 -4.164062 C 4.742188 -4.21875 4.792969 -4.253906 4.863281 -4.253906 C 4.917969 -4.253906 4.953125 -4.21875 4.988281 -4.164062 L 6.789062 -0.296875 C 6.875 -0.0859375 7.035156 0 7.261719 0 L 8.3125 0 C 8.488281 0 8.625 -0.0703125 8.730469 -0.226562 C 8.835938 -0.402344 8.855469 -0.558594 8.765625 -0.734375 L 5.96875 -6.738281 C 5.949219 -6.773438 5.949219 -6.808594 5.96875 -6.859375 L 8.417969 -12.089844 C 8.488281 -12.265625 8.488281 -12.441406 8.382812 -12.582031 C 8.277344 -12.738281 8.136719 -12.828125 7.960938 -12.828125 L 6.910156 -12.828125 C 6.683594 -12.828125 6.527344 -12.722656 6.4375 -12.527344 L 4.988281 -9.414062 C 4.953125 -9.34375 4.917969 -9.328125 4.863281 -9.328125 C 4.792969 -9.328125 4.742188 -9.34375 4.722656 -9.414062 L 3.273438 -12.527344 C 3.167969 -12.722656 3.007812 -12.828125 2.800781 -12.828125 L 1.75 -12.828125 C 1.558594 -12.828125 1.417969 -12.738281 1.328125 -12.582031 C 1.226562 -12.441406 1.207031 -12.265625 1.292969 -12.089844 L 3.746094 -6.859375 C 3.746094 -6.808594 3.746094 -6.773438 3.746094 -6.738281 Z M 3.746094 -6.738281" transform="translate(165.653 43.225)"/></g></g></g></svg>